<svg width="134" height="100" viewBox="0 0 134 100" fill="none" xmlns="http://www.w3.org/2000/svg">
<g clip-path="url(#clip0_28_754)">
<path d="M72.6228 66.6668V65.6081C72.6228 59.6492 72.638 53.6904 72.6076 47.7239C72.6076 46.9904 72.7823 46.6123 73.5188 46.2947C81.9702 42.6725 86.9743 33.4166 85.4176 24.4632C83.2915 12.1825 71.218 5.02129 60.109 8.11415C59.5167 8.28051 59.1446 8.19733 58.727 7.65286C50.8071 -2.53316 34.937 -2.54829 26.9943 7.62262C26.5539 8.18977 26.1818 8.28807 25.5364 8.10658C23.0306 7.40332 20.4944 7.23695 17.9051 7.56968C8.28429 8.79473 0.850388 16.5004 0.0682722 26.0739C-0.645504 34.8232 4.1535 42.8238 12.2708 46.3477C12.8783 46.6123 13.0757 46.9148 13.0757 47.5651C13.0529 53.5845 13.0605 59.6114 13.0605 65.6308V66.6668H72.6152H72.6228ZM54.0191 48.2684C54.0419 47.0812 54.7481 46.3552 55.8339 46.3325C56.9425 46.3099 57.6715 47.0509 57.7398 48.276C57.7398 48.3365 57.7398 48.397 57.7398 48.4575C57.7398 49.2893 57.7398 50.1287 57.7398 50.9605C57.7398 51.8528 57.7626 52.7527 57.7322 53.645C57.6867 54.87 56.9349 55.6111 55.8263 55.5809C54.748 55.5506 54.0419 54.8247 54.0267 53.6299C53.9963 51.8377 53.9963 50.0455 54.0267 48.2533L54.0191 48.2684ZM40.9813 48.3667C41.0041 47.0736 41.7406 46.3023 42.8872 46.3325C44.0034 46.3628 44.6868 47.0963 44.702 48.3667C44.7248 50.7109 44.7248 53.0627 44.702 55.4069C44.6868 56.7076 43.9427 57.4714 42.7961 57.4411C41.6875 57.4109 41.0041 56.6698 40.9813 55.4069C40.9585 54.2348 40.9813 53.0627 40.9813 51.8831C40.9813 50.7034 40.9661 49.5388 40.9813 48.3592V48.3667ZM27.9587 48.2155C27.9815 47.0509 28.7408 46.325 29.8266 46.3325C30.9049 46.3401 31.6263 47.0585 31.6642 48.2382C31.6946 49.1305 31.6642 50.0304 31.6642 50.9227C31.6642 51.8528 31.6946 52.7754 31.6566 53.7055C31.6111 54.8776 30.8669 55.596 29.7887 55.5884C28.7104 55.5809 27.9739 54.8549 27.9511 53.6752C27.9207 51.8528 27.9131 50.0304 27.9511 48.2079L27.9587 48.2155Z" fill="#F7DEA2" fill-opacity="0.95"/>
<path d="M133.552 43.7462C131.661 34.8079 126.338 28.9171 117.538 26.1872C117.378 26.1343 117.234 26.036 117.082 25.9604C115.647 25.7411 114.212 25.5218 112.777 25.3025C112.61 25.3327 112.442 25.3932 112.283 25.3932C102.753 25.363 95.6535 29.4767 91.3253 37.9386C89.0018 42.4834 87.0427 47.202 84.9165 51.8451C84.0661 53.7054 83.1928 55.5581 82.3576 57.4334C81.8185 58.6434 82.3804 59.7172 83.5725 59.823C84.4685 59.8987 84.9317 59.3693 85.2734 58.6282C88.0982 52.435 90.9381 46.2492 93.7628 40.056C98.0379 30.6942 108.236 26.2855 117.986 29.6053C119.557 30.1422 121.053 30.8757 122.519 32.01C121.873 31.9797 121.418 31.957 120.962 31.9268C120.499 31.9041 120.036 31.8512 119.573 31.8512C113.619 31.7831 108.296 33.6434 103.467 37.0312C98.8883 40.245 95.2967 44.3587 92.3656 49.0699C91.8113 49.9622 91.9936 50.8545 92.7681 51.346C93.5502 51.8451 94.4007 51.6183 95.0081 50.7486C95.1372 50.5596 95.2587 50.3554 95.3802 50.1664C97.3545 47.1189 99.6173 44.3058 102.343 41.8935C107.78 37.0841 113.999 34.4147 121.418 35.1255C122.595 35.239 123.764 35.4734 124.941 35.6549C124.964 35.7759 124.987 35.9044 125.009 36.0254C124.751 36.1615 124.478 36.2674 124.243 36.4338C112.07 45.3267 99.8982 54.2196 87.7337 63.1201C87.4299 63.3394 87.1034 63.5511 86.8528 63.8233C86.3289 64.4132 86.2909 65.0711 86.7238 65.7365C87.149 66.3793 87.9463 66.6062 88.6373 66.281C88.9258 66.1449 89.1764 65.9407 89.4346 65.7592C101.675 56.8134 113.916 47.8675 126.156 38.9217C126.376 38.7553 126.619 38.6116 126.915 38.415C126.634 40.245 126.536 42.0221 126.073 43.6933C124.561 49.1152 121.228 53.2743 116.695 56.5336C112.177 59.7852 107.089 61.7135 101.675 62.8932C100.453 63.1579 99.8679 63.899 100.096 64.8442C100.331 65.8197 101.136 66.2129 102.374 65.9483C107.514 64.8367 112.389 63.0445 116.839 60.2087C122.056 56.889 126.126 52.5711 128.373 46.7408C128.95 45.2284 129.353 43.6555 129.869 42.007C129.983 42.3624 130.082 42.627 130.15 42.8993C130.963 46.1509 131.077 49.4177 130.089 52.6467C127.713 60.4356 122.557 65.3131 114.462 66.6213C107.757 67.7102 100.969 68.3454 94.226 69.1772C91.4772 69.5175 88.7284 69.8503 86.0328 70.183C85.7214 69.5629 85.486 68.9958 85.1747 68.4891C84.8406 67.9446 84.4458 67.4455 84.0585 66.9389C82.0994 64.33 79.3886 63.8385 76.6702 65.6155C74.1871 67.2338 71.7117 68.8596 69.2363 70.4779H13.0986C13.0834 70.6972 13.0682 70.8484 13.0682 70.9997C13.0682 75.1059 13.0682 79.212 13.0682 83.3182C13.0682 84.6416 13.7212 85.2616 15.1032 85.2616C25.6352 85.2616 36.1748 85.2616 46.7068 85.2616C46.6156 85.3221 46.5169 85.3826 46.4258 85.4507C41.9457 88.4452 41.6344 94.7595 45.7272 98.2002C48.6507 100.658 52.8802 100.65 56.0466 98.0792C64.9688 90.8575 73.8606 83.6131 82.76 76.3612C83.5877 75.6881 84.4761 75.0227 85.1064 74.1833C85.5924 73.5405 86.0859 73.3515 86.8073 73.2683C95.775 72.1869 104.735 71.1056 113.695 69.9864C122.018 68.9504 128.085 64.7081 131.79 57.2066C132.421 55.9286 132.831 54.5372 133.347 53.1987C133.567 51.7695 133.787 50.3403 134.008 48.9111C133.871 47.1945 133.916 45.4401 133.56 43.7613L133.552 43.7462ZM54.657 90.9936C53.8066 91.7877 52.789 92.4002 51.8171 93.0656C51.6728 93.1639 51.4298 93.1337 51.3539 93.1413C50.0706 92.9673 49.4176 91.5381 50.2301 90.7138C50.9894 89.9501 51.9234 89.33 52.8574 88.7704C53.4497 88.4226 54.1027 88.6343 54.5659 89.1788C55.0595 89.7535 55.1506 90.5248 54.6494 90.9936H54.657Z" fill="#F7DEA2" fill-opacity="0.95"/>
</g>
<defs>
<clipPath id="clip0_28_754">
<rect width="134" height="100" fill="white"/>
</clipPath>
</defs>
</svg>
