<svg width="112" height="94" viewBox="0 0 112 94" fill="none" xmlns="http://www.w3.org/2000/svg">
<g clip-path="url(#clip0_27_116)">
<path d="M55.7008 11.3189C58.2678 9.19367 60.504 7.00543 63.0552 5.28947C81.2914 -6.92691 106.535 3.33737 111.291 24.779C112.929 32.2096 111.717 39.0892 108.126 45.6854C104.41 52.502 99.5119 58.4055 94.0945 63.9155C82.8662 75.329 70.2048 84.9478 56.8504 93.7165C56.2205 94.1258 55.7796 94.0944 55.1812 93.7008C40.9607 84.3339 27.4646 74.0696 15.7638 61.6171C10.8819 56.4219 6.58272 50.8175 3.25989 44.4574C-3.73224 31.0761 1.35438 16.1677 10.7245 8.04445C24.252 -3.69965 43.4646 -2.45597 55.4489 10.8781C55.6063 11.0671 55.7008 11.3189 55.7008 11.3032V11.3189ZM56.0315 16.2779C55.5591 15.6639 55.1969 15.1917 54.8504 14.7351C44.2048 0.787041 24.504 -0.897434 11.9056 11.0985C4.14178 18.4819 -0.236174 31.4382 6.17327 43.3869C9.37012 49.322 13.3859 54.6273 17.9843 59.4918C29.0709 71.2831 41.7953 81.1066 55.2284 90.0485C55.8898 90.4893 56.3308 90.3476 56.9134 89.9698C69.4174 81.6733 81.2441 72.5583 91.7953 61.8532C97.4174 56.1386 102.551 50.0619 106.11 42.7887C108.567 37.7983 109.543 32.6189 108.583 27.046C105.024 6.20255 80.8504 -3.82559 63.6221 8.42228C60.6457 10.5476 58.2363 13.2081 56.0158 16.2779H56.0315Z" fill="#F7DEA2" fill-opacity="0.95"/>
<path d="M30.2677 9.00485C30.4252 8.12326 30.9291 7.57226 31.8897 7.65098C32.8346 7.71395 33.3386 8.29643 33.2756 9.241C33.2126 10.1856 32.6299 10.6893 31.685 10.6421C30.7401 10.5791 30.2992 9.98091 30.2677 9.0206V9.00485Z" fill="#F7DEA2" fill-opacity="0.95"/>
<path d="M80.252 10.6736C79.2756 10.5319 78.7087 10.0439 78.7559 9.09931C78.7874 8.15475 79.3543 7.6195 80.2992 7.65098C81.2441 7.68247 81.7638 8.24921 81.748 9.19377C81.7323 10.1541 81.1024 10.5634 80.2677 10.6893L80.252 10.6736Z" fill="#F7DEA2" fill-opacity="0.95"/>
<path d="M104.488 31.7059C104.409 32.7292 103.953 33.3274 103.008 33.3432C102.063 33.3589 101.496 32.8394 101.48 31.8948C101.449 30.9503 101.984 30.3993 102.929 30.352C103.89 30.3205 104.346 30.9188 104.504 31.7059H104.488Z" fill="#F7DEA2" fill-opacity="0.95"/>
<path d="M10.5984 31.8476C10.4882 32.7607 10.0158 33.3432 9.07089 33.3274C8.12601 33.3274 7.59058 32.7764 7.59058 31.8319C7.59058 30.8873 8.14176 30.352 9.08664 30.352C10.0473 30.352 10.504 30.9345 10.5984 31.8633V31.8476Z" fill="#F7DEA2" fill-opacity="0.95"/>
<path d="M56.0315 24.2596C56.9449 24.3698 57.5275 24.8421 57.5118 25.7866C57.5118 26.7312 56.9606 27.2822 56.0157 27.2665C55.0708 27.2665 54.5354 26.7155 54.5354 25.7709C54.5354 24.8106 55.1181 24.354 56.0472 24.2596H56.0315Z" fill="#F7DEA2" fill-opacity="0.95"/>
<path d="M60.5196 22.0084C59.6063 21.8824 59.0393 21.3787 59.0708 20.4341C59.1023 19.4895 59.6693 18.9543 60.6141 18.9858C61.5433 19.0173 62.0787 19.5682 62.063 20.5128C62.0315 21.4731 61.4488 21.9139 60.5196 21.9926V22.0084Z" fill="#F7DEA2" fill-opacity="0.95"/>
<path d="M12.0787 41.6711C12.9921 41.7655 13.5905 42.1906 13.6063 43.1509C13.622 44.0955 13.0866 44.6465 12.1574 44.6779C11.2126 44.6937 10.6614 44.1584 10.6299 43.2296C10.5984 42.285 11.1811 41.797 12.0944 41.6711H12.0787Z" fill="#F7DEA2" fill-opacity="0.95"/>
<path d="M21.9527 12.2636C21.811 13.1452 21.3228 13.7119 20.3622 13.6647C19.4173 13.6175 18.8976 13.0507 18.9449 12.1062C18.9764 11.1616 19.559 10.6421 20.5039 10.6736C21.4488 10.7051 21.9055 11.319 21.9685 12.2479L21.9527 12.2636Z" fill="#F7DEA2" fill-opacity="0.95"/>
<path d="M43.0551 13.6962C42.1574 13.5703 41.6063 13.0822 41.6378 12.1377C41.685 11.1931 42.2519 10.6578 43.1811 10.7051C44.1102 10.7366 44.6456 11.3033 44.6141 12.2479C44.5826 13.1924 44 13.649 43.0393 13.6962H43.0551Z" fill="#F7DEA2" fill-opacity="0.95"/>
<path d="M68.8662 10.6421C69.7796 10.7523 70.378 11.2088 70.378 12.1692C70.378 13.1137 69.8426 13.6647 68.8977 13.6647C67.9528 13.6647 67.4174 13.1295 67.4016 12.1849C67.4016 11.2246 67.9685 10.768 68.8819 10.6421H68.8662Z" fill="#F7DEA2" fill-opacity="0.95"/>
<path d="M93.1338 12.1219C93.0236 13.098 92.5669 13.6805 91.6063 13.6647C90.6614 13.6647 90.1102 13.1137 90.1102 12.1849C90.1102 11.2403 90.6614 10.6893 91.6063 10.6893C92.5512 10.6893 93.0236 11.2718 93.1338 12.1219Z" fill="#F7DEA2" fill-opacity="0.95"/>
<path d="M98.3937 20.3554C98.5354 19.4738 99.0551 18.9385 100 19.0015C100.929 19.0645 101.465 19.6627 101.402 20.5915C101.339 21.5203 100.756 22.0399 99.811 21.9769C98.8661 21.9139 98.4252 21.3157 98.3937 20.3396V20.3554Z" fill="#F7DEA2" fill-opacity="0.95"/>
<path d="M53.0079 20.4184C52.8819 21.3944 52.4252 21.9926 51.4646 21.9926C50.5197 21.9926 49.9843 21.4574 49.9685 20.5128C49.9685 19.5682 50.5039 19.033 51.4488 19.0173C52.4094 19.0173 52.8504 19.6155 52.9921 20.4341L53.0079 20.4184Z" fill="#F7DEA2" fill-opacity="0.95"/>
<path d="M13.622 20.6388C13.4803 21.5046 12.9606 22.0399 12.0157 21.9769C11.0866 21.9139 10.5511 21.3157 10.6141 20.3869C10.6771 19.458 11.2756 18.9385 12.2047 19.0015C13.1496 19.0645 13.6063 19.647 13.622 20.6388Z" fill="#F7DEA2" fill-opacity="0.95"/>
<path d="M99.9685 44.7252C98.9922 44.615 98.4095 44.1584 98.4252 43.1981C98.4252 42.2536 98.9764 41.7183 99.9213 41.7183C100.866 41.7183 101.402 42.285 101.417 43.2139C101.417 44.1742 100.819 44.615 99.9843 44.7409L99.9685 44.7252Z" fill="#F7DEA2" fill-opacity="0.95"/>
<path d="M87.6221 9.85496C87.5591 10.768 87.1339 11.3663 86.1575 11.3978C85.1969 11.4292 84.63 10.8468 84.5985 9.94942C84.567 9.05208 85.1024 8.43812 86.0631 8.40663C87.0079 8.37514 87.5119 8.92614 87.6221 9.85496Z" fill="#F7DEA2" fill-opacity="0.95"/>
<path d="M11.3543 25.9441C11.2913 26.9201 10.7401 27.4869 9.8425 27.4711C8.94486 27.4711 8.34644 26.9201 8.34644 25.9598C8.34644 25.0152 8.89762 24.48 9.8425 24.48C10.7874 24.48 11.2913 25.031 11.3543 25.9441Z" fill="#F7DEA2" fill-opacity="0.95"/>
<path d="M103.717 25.8654C103.669 26.8414 103.165 27.4396 102.268 27.4869C101.37 27.5341 100.756 27.0146 100.709 26.0543C100.661 25.094 101.181 24.543 102.126 24.4957C103.087 24.4485 103.575 24.9995 103.732 25.8654H103.717Z" fill="#F7DEA2" fill-opacity="0.95"/>
<path d="M74.2993 11.4135C73.4016 11.319 72.8662 10.8153 72.8819 9.87071C72.8977 8.92614 73.4646 8.39089 74.3937 8.39089C75.3386 8.39089 75.8898 9.0206 75.8741 9.91794C75.8741 10.8153 75.3071 11.3663 74.2993 11.3978V11.4135Z" fill="#F7DEA2" fill-opacity="0.95"/>
<path d="M39.1654 9.87071C39.0867 10.7838 38.6615 11.382 37.6851 11.4135C36.7087 11.445 36.1733 10.8625 36.1418 9.96517C36.1103 9.06783 36.6615 8.45386 37.6063 8.42237C38.5512 8.39089 39.0552 8.95763 39.1654 9.87071Z" fill="#F7DEA2" fill-opacity="0.95"/>
<path d="M11.3543 37.7354C11.2756 38.6642 10.7716 39.1995 9.82675 39.1995C8.88187 39.1995 8.34644 38.6327 8.34644 37.7039C8.34644 36.7593 8.96061 36.2083 9.85825 36.2083C10.7716 36.2083 11.2913 36.7751 11.3543 37.7354Z" fill="#F7DEA2" fill-opacity="0.95"/>
<path d="M103.716 37.7511C103.591 38.6485 103.118 39.2152 102.173 39.1995C101.244 39.1837 100.693 38.6642 100.693 37.7039C100.693 36.7436 101.291 36.2083 102.189 36.2083C103.102 36.2083 103.622 36.7908 103.701 37.7511H103.716Z" fill="#F7DEA2" fill-opacity="0.95"/>
<path d="M25.8582 11.4135C24.9291 11.319 24.4094 10.7995 24.4252 9.87071C24.4409 8.92614 25.0078 8.39089 25.9527 8.40663C26.8976 8.42238 27.4488 9.03634 27.4173 9.93368C27.4015 10.831 26.8189 11.3663 25.8582 11.4135Z" fill="#F7DEA2" fill-opacity="0.95"/>
<path d="M65.6851 15.7428C65.6378 16.6873 65.1654 17.2541 64.2205 17.2855C63.2756 17.317 62.693 16.7346 62.6615 15.8372C62.63 14.9241 63.2284 14.3102 64.1418 14.2787C65.0552 14.2472 65.5906 14.8139 65.6851 15.7428Z" fill="#F7DEA2" fill-opacity="0.95"/>
<path d="M94.7874 15.6798C94.9763 14.7037 95.5433 14.1685 96.4566 14.2787C97.3385 14.3889 97.9212 15.0186 97.811 15.9317C97.7007 16.829 97.1023 17.3485 96.1574 17.2698C95.1968 17.1754 94.8188 16.5456 94.7874 15.6798Z" fill="#F7DEA2" fill-opacity="0.95"/>
<path d="M17.2283 15.7428C17.1653 16.7031 16.6772 17.2698 15.7323 17.2855C14.7874 17.2855 14.2205 16.7188 14.2047 15.8057C14.2047 14.8926 14.7874 14.2944 15.7008 14.2629C16.6142 14.2472 17.1338 14.8297 17.2283 15.727V15.7428Z" fill="#F7DEA2" fill-opacity="0.95"/>
<path d="M47.8897 17.2855C46.9606 17.2383 46.3779 16.766 46.3464 15.8215C46.3149 14.8769 46.8976 14.2944 47.7953 14.2629C48.7086 14.2314 49.3228 14.8297 49.3543 15.727C49.3858 16.6401 48.8346 17.1911 47.874 17.2855H47.8897Z" fill="#F7DEA2" fill-opacity="0.95"/>
</g>
<defs>
<clipPath id="clip0_27_116">
<rect width="112" height="94" fill="white"/>
</clipPath>
</defs>
</svg>
