<svg width="117" height="82" viewBox="0 0 117 82" fill="none" xmlns="http://www.w3.org/2000/svg">
<g clip-path="url(#clip0_27_257)">
<path d="M117 1.65274V73.3269C116.409 74.5399 115.425 75.1161 114.031 74.9797C113.44 76.7537 112.865 78.4822 112.274 80.1956C111.82 81.4996 111.108 81.9848 109.729 81.9848C107.578 81.9848 105.442 81.9848 103.291 81.9848C101.837 81.9848 101.156 81.4996 100.671 80.135C100.201 78.8158 99.6863 77.4967 99.3531 76.1472C99.1107 75.1616 98.626 74.9342 97.6565 74.9342C71.5724 74.9645 45.4882 74.9493 19.4041 74.9493C18.9799 74.9493 18.5558 74.9493 18.1014 74.9493C17.5106 76.6627 16.9502 78.3155 16.3897 79.9682C15.8595 81.5148 15.2385 81.9697 13.648 81.9697C11.5425 81.9697 9.43695 81.9697 7.33144 81.9697C5.87727 81.9697 5.19562 81.4845 4.72605 80.1047C4.21103 78.6339 3.7566 77.1479 3.22644 75.6923C3.1204 75.4042 2.8023 75.0251 2.5145 74.9797C0.515018 74.6309 0 74.0547 0 72.0533C0 49.0666 0 26.0799 0 3.09319C0 0.742973 0.727085 0.0151627 3.05981 0.0151627C40.0199 0.0151627 76.9801 0.0303254 113.955 0C115.364 0 116.379 0.379068 117.015 1.65274H117ZM77.2073 39.8325C77.8738 39.8325 78.3736 39.8325 78.8887 39.8325C81.0396 39.8325 81.8879 38.9834 81.903 36.8757C81.903 35.6324 81.903 34.3739 81.903 33.1305C81.903 31.3413 82.7816 30.4771 84.5539 30.4771C85.9777 30.4771 87.4168 30.4771 88.8406 30.4771V14.162H14.1024V30.4771C15.6475 30.4771 17.1168 30.4619 18.5861 30.4771C20.1312 30.4922 21.0249 31.402 21.0552 32.9638C21.0703 34.4042 21.04 35.8598 21.0552 37.3003C21.0854 38.5891 21.7065 39.514 22.8577 39.7112C23.7817 39.8628 24.7512 39.7415 25.7812 39.7415V32.9031H30.4315V39.7718H35.1273V32.8879H39.7776V39.7567H44.4733V32.9183H49.1236V39.787H53.8194V32.9031H58.4697V39.7718H63.1655V32.9334H67.8158V39.8021H72.5115V32.9183H77.1315C77.1315 34.1161 77.1315 35.2382 77.1315 36.3602C77.1315 37.4822 77.1315 38.6043 77.1315 39.878L77.2073 39.8325ZM86.5685 35.1775C86.5685 36.0418 86.5685 36.7696 86.5685 37.5126C86.5382 41.3942 83.4632 44.5026 79.5855 44.5026C60.8327 44.5026 42.08 44.5026 23.3273 44.5026C19.4495 44.5026 16.4048 41.3791 16.3745 37.4822C16.3745 36.7241 16.3745 35.9508 16.3745 35.1927H14.0873V60.848H88.8406V35.1775H86.5685ZM107.639 14.0558C107.639 11.5237 105.458 9.3554 102.928 9.37056C100.429 9.38572 98.323 11.4933 98.2776 13.9952C98.2321 16.5274 100.383 18.7108 102.928 18.7411C105.458 18.7563 107.639 16.588 107.639 14.0558ZM102.943 32.797C105.473 32.797 107.654 30.6287 107.639 28.0965C107.639 25.5947 105.533 23.4871 103.034 23.4264C100.519 23.3658 98.3079 25.5189 98.2776 28.0662C98.2473 30.5984 100.398 32.7818 102.943 32.797ZM107.639 42.1979C107.654 39.6657 105.503 37.4822 102.958 37.4822C100.459 37.4822 98.3382 39.5747 98.2776 42.0765C98.217 44.5936 100.353 46.8073 102.898 46.8528C105.412 46.8983 107.608 44.73 107.639 42.1979Z" fill="#F7DEA2" fill-opacity="0.95"/>
</g>
<defs>
<clipPath id="clip0_27_257">
<rect width="117" height="82" fill="white"/>
</clipPath>
</defs>
</svg>
