<svg width="94" height="96" viewBox="0 0 94 96" fill="none" xmlns="http://www.w3.org/2000/svg">
<g clip-path="url(#clip0_28_769)">
<path d="M-3.74168e-05 23.4513C0.0657122 19.1052 1.30034 15.3425 3.56505 11.9225C7.51733 5.96491 12.8723 1.90323 19.9586 0.408356C25.6058 -0.78025 30.7342 0.772959 35.4828 3.79917C39.1502 6.13992 42.1966 9.15154 44.8193 12.6955C46.2 11.4121 47.4931 10.1141 48.8884 8.92548C53.4032 5.06069 58.4587 2.2022 64.2738 0.736499C72.9455 -1.44383 79.8711 1.25424 85.321 8.14524C89.2952 13.1695 91.9325 18.8792 93.8319 24.9534C93.8685 25.0774 93.905 25.2014 94.0073 25.5514C92.9041 24.6545 91.9983 23.8815 91.0412 23.1596C86.3438 19.6229 81.303 16.8009 75.4732 15.5321C70.279 14.4018 65.1724 15.0217 60.2266 16.6113C56.8661 17.6905 53.6735 19.2875 50.408 20.6657C50.1012 20.797 49.8382 21.0157 49.4071 21.2855C52.1102 21.3949 54.6233 21.4314 57.1217 21.5991C63.7113 22.0366 70.2132 22.9262 76.2403 25.8577C83.7723 29.5256 87.4177 35.6582 87.593 43.9201C87.783 53.2685 85.0288 61.7419 79.7834 69.4496C79.6081 69.7121 79.4036 69.9528 79.104 70.3538C78.7168 68.56 78.3954 66.9193 78.0009 65.2931C75.8458 56.426 72.5802 48.0328 67.0061 40.697C62.2356 34.4112 56.2013 30.0287 48.3478 28.2495C44.812 27.4473 41.5902 28.2786 38.3539 29.3797C30.0914 32.1945 23.8086 37.5833 18.8482 44.6055C13.9316 51.5622 10.6806 59.2699 8.73735 67.5391C8.70083 67.7068 8.62777 67.8599 8.49627 68.2464C8.09447 67.5828 7.77303 67.1016 7.50272 66.5838C3.52852 59.1751 1.70215 51.2413 2.22084 42.8919C2.71031 35.1404 6.88906 29.5766 13.5809 25.8431C20.0901 22.2116 27.1618 20.9574 34.5404 21.0886C35.7093 21.1105 36.8709 21.1907 38.3247 21.2637C37.3311 20.6147 36.5567 20.0751 35.7531 19.5865C32.0712 17.3551 28.1627 15.729 23.8598 15.1529C19.3888 14.555 15.1589 15.5321 11.0386 17.1363C7.40775 18.551 4.04722 20.4615 0.935068 22.8023C0.686681 22.9919 0.423682 23.1523 -0.0146484 23.444L-3.74168e-05 23.4513Z" fill="#F7DEA2" fill-opacity="0.95"/>
<path d="M4.44177 95.9854C7.07906 94.7677 10.0013 93.652 12.7043 92.1425C22.9978 86.3891 30.2083 77.799 35.1468 67.2255C38.6316 59.773 40.699 51.9122 41.6853 43.767C42.1017 40.3178 42.3062 36.8395 42.5619 33.3758C42.6058 32.7268 42.8322 32.457 43.4532 32.3184C46.2512 31.6913 48.7643 32.7559 51.3066 33.6091C51.5112 33.682 51.6573 34.1123 51.723 34.3967C53.0892 40.1282 53.6444 45.9327 53.2426 51.8247C52.1394 68.086 45.959 82.3784 36.2792 95.3C36.0162 95.65 35.4317 95.9708 35.0007 95.9708C24.8899 96.0073 14.7864 96 4.67555 96C4.51483 96 4.3468 95.9781 4.44177 95.9854Z" fill="#F7DEA2" fill-opacity="0.95"/>
</g>
<defs>
<clipPath id="clip0_28_769">
<rect width="94" height="96" fill="white"/>
</clipPath>
</defs>
</svg>
